<?xml version="1.0" encoding="UTF-8" standalone="no"?>
<!DOCTYPE svg PUBLIC "-//W3C//DTD SVG 1.1//EN"
 "http://www.w3.org/Graphics/SVG/1.1/DTD/svg11.dtd">
<!-- Generated by graphviz version 2.43.0 (0)
 -->
<!-- Title: dag Pages: 1 -->
<svg width="1376pt" height="404pt"
 viewBox="0.00 0.00 1375.89 403.80" xmlns="http://www.w3.org/2000/svg" xmlns:xlink="http://www.w3.org/1999/xlink">
<g id="graph0" class="graph" transform="scale(1 1) rotate(0) translate(4 399.8)">
<title>dag</title>
<polygon fill="white" stroke="transparent" points="-4,4 -4,-399.8 1371.89,-399.8 1371.89,4 -4,4"/>
<!-- v0 -->
<g id="node1" class="node">
<title>v0</title>
<ellipse fill="black" stroke="black" cx="885.04" cy="-392.2" rx="3.6" ry="3.6"/>
</g>
<!-- v1 -->
<g id="node2" class="node">
<title>v1</title>
<ellipse fill="none" stroke="black" cx="885.04" cy="-319.6" rx="93.68" ry="18"/>
<text text-anchor="middle" x="885.04" y="-315.9" font-family="Times,serif" font-size="14.00">download_uniprot</text>
</g>
<!-- v0&#45;&gt;v1 -->
<g id="edge1" class="edge">
<title>v0&#45;&gt;v1</title>
<path fill="none" stroke="black" d="M885.04,-388.52C885.04,-381.85 885.04,-363.9 885.04,-348.13"/>
<polygon fill="black" stroke="black" points="888.54,-347.73 885.04,-337.73 881.54,-347.73 888.54,-347.73"/>
<text text-anchor="middle" x="925.04" y="-359.4" font-family="Times,serif" font-size="14.00">uniprot_url</text>
</g>
<!-- v10 -->
<g id="node3" class="node">
<title>v10</title>
<ellipse fill="none" stroke="black" cx="833.04" cy="-232.6" rx="67.69" ry="18"/>
<text text-anchor="middle" x="833.04" y="-228.9" font-family="Times,serif" font-size="14.00">sort_uniprot</text>
</g>
<!-- v1&#45;&gt;v10 -->
<g id="edge2" class="edge">
<title>v1&#45;&gt;v10</title>
<path fill="none" stroke="black" d="M874.52,-301.4C867.14,-289.34 857.15,-273 848.82,-259.39"/>
<polygon fill="black" stroke="black" points="851.58,-257.19 843.37,-250.49 845.61,-260.84 851.58,-257.19"/>
</g>
<!-- v14 -->
<g id="node14" class="node">
<title>v14</title>
<ellipse fill="none" stroke="black" cx="861.04" cy="-145.6" rx="57.69" ry="18"/>
<text text-anchor="middle" x="861.04" y="-141.9" font-family="Times,serif" font-size="14.00">list_taxids</text>
</g>
<!-- v1&#45;&gt;v14 -->
<g id="edge15" class="edge">
<title>v1&#45;&gt;v14</title>
<path fill="none" stroke="black" d="M894.89,-301.45C905.53,-280.65 919.74,-244.64 910.04,-214.6 904.85,-198.51 894.28,-183.02 884.28,-170.9"/>
<polygon fill="black" stroke="black" points="886.71,-168.35 877.52,-163.08 881.41,-172.93 886.71,-168.35"/>
<text text-anchor="middle" x="971.54" y="-228.9" font-family="Times,serif" font-size="14.00">original_uniprot</text>
</g>
<!-- v16 -->
<g id="node6" class="node">
<title>v16</title>
<ellipse fill="none" stroke="black" cx="431.04" cy="-145.6" rx="67.69" ry="18"/>
<text text-anchor="middle" x="431.04" y="-141.9" font-family="Times,serif" font-size="14.00">process_goa</text>
</g>
<!-- v10&#45;&gt;v16 -->
<g id="edge17" class="edge">
<title>v10&#45;&gt;v16</title>
<path fill="none" stroke="black" d="M791.56,-218.17C776.17,-212.45 758.87,-205.12 744.04,-196.6 734.71,-191.24 735.02,-185.64 725.04,-181.6 651.34,-151.77 625.96,-173.37 547.04,-163.6 531.22,-161.64 514.22,-159.29 498.24,-156.97"/>
<polygon fill="black" stroke="black" points="498.31,-153.44 487.91,-155.45 497.3,-160.37 498.31,-153.44"/>
<text text-anchor="middle" x="781.04" y="-185.4" font-family="Times,serif" font-size="14.00">sorted_ids</text>
</g>
<!-- v10&#45;&gt;v14 -->
<g id="edge11" class="edge">
<title>v10&#45;&gt;v14</title>
<path fill="none" stroke="black" d="M840.25,-214.65C842.55,-208.96 845.03,-202.55 847.04,-196.6 849.55,-189.2 851.96,-181.09 854.06,-173.59"/>
<polygon fill="black" stroke="black" points="857.46,-174.43 856.7,-163.86 850.7,-172.6 857.46,-174.43"/>
</g>
<!-- v12 -->
<g id="node15" class="node">
<title>v12</title>
<ellipse fill="none" stroke="black" cx="661.04" cy="-145.6" rx="104.78" ry="18"/>
<text text-anchor="middle" x="661.04" y="-141.9" font-family="Times,serif" font-size="14.00">filter_large_proteins</text>
</g>
<!-- v10&#45;&gt;v12 -->
<g id="edge12" class="edge">
<title>v10&#45;&gt;v12</title>
<path fill="none" stroke="black" d="M833.7,-214.57C833.17,-203.71 830.6,-190.14 822.04,-181.6 811.76,-171.35 784.32,-163.72 754.93,-158.25"/>
<polygon fill="black" stroke="black" points="755.38,-154.77 744.92,-156.48 754.16,-161.67 755.38,-154.77"/>
</g>
<!-- v32 -->
<g id="node32" class="node">
<title>v32</title>
<ellipse fill="none" stroke="black" cx="1284.04" cy="-145.6" rx="83.69" ry="18"/>
<text text-anchor="middle" x="1284.04" y="-141.9" font-family="Times,serif" font-size="14.00">prottrans_embs</text>
</g>
<!-- v10&#45;&gt;v32 -->
<g id="edge33" class="edge">
<title>v10&#45;&gt;v32</title>
<path fill="none" stroke="black" d="M870.77,-217.51C903.24,-205.97 951.59,-190.2 995.04,-181.6 1080.86,-164.61 1104.38,-175.48 1191.04,-163.6 1198.59,-162.57 1206.46,-161.35 1214.28,-160.05"/>
<polygon fill="black" stroke="black" points="1214.87,-163.5 1224.14,-158.36 1213.69,-156.6 1214.87,-163.5"/>
<text text-anchor="middle" x="1032.04" y="-185.4" font-family="Times,serif" font-size="14.00">sorted_ids</text>
</g>
<!-- v2 -->
<g id="node4" class="node">
<title>v2</title>
<ellipse fill="black" stroke="black" cx="76.04" cy="-319.6" rx="3.6" ry="3.6"/>
</g>
<!-- v3 -->
<g id="node5" class="node">
<title>v3</title>
<ellipse fill="none" stroke="black" cx="76.04" cy="-232.6" rx="76.09" ry="18"/>
<text text-anchor="middle" x="76.04" y="-228.9" font-family="Times,serif" font-size="14.00">download_goa</text>
</g>
<!-- v2&#45;&gt;v3 -->
<g id="edge3" class="edge">
<title>v2&#45;&gt;v3</title>
<path fill="none" stroke="black" d="M76.04,-315.77C76.04,-307.28 76.04,-281.35 76.04,-260.87"/>
<polygon fill="black" stroke="black" points="79.54,-260.77 76.04,-250.77 72.54,-260.77 79.54,-260.77"/>
<text text-anchor="middle" x="102.54" y="-272.4" font-family="Times,serif" font-size="14.00">goa_url</text>
</g>
<!-- v3&#45;&gt;v16 -->
<g id="edge4" class="edge">
<title>v3&#45;&gt;v16</title>
<path fill="none" stroke="black" d="M102.78,-215.55C122.81,-204.27 151.26,-189.79 178.04,-181.6 235.96,-163.9 304.1,-155.12 355.06,-150.79"/>
<polygon fill="black" stroke="black" points="355.66,-154.25 365.34,-149.95 355.09,-147.27 355.66,-154.25"/>
</g>
<!-- v22 -->
<g id="node13" class="node">
<title>v22</title>
<ellipse fill="none" stroke="black" cx="912.04" cy="-58.6" rx="69.59" ry="18"/>
<text text-anchor="middle" x="912.04" y="-54.9" font-family="Times,serif" font-size="14.00">taxa_profiles</text>
</g>
<!-- v16&#45;&gt;v22 -->
<g id="edge21" class="edge">
<title>v16&#45;&gt;v22</title>
<path fill="none" stroke="black" d="M485.75,-134.93C574.72,-119.21 750.43,-88.16 846.14,-71.25"/>
<polygon fill="black" stroke="black" points="847.04,-74.64 856.27,-69.46 845.82,-67.75 847.04,-74.64"/>
</g>
<!-- v20 -->
<g id="node19" class="node">
<title>v20</title>
<ellipse fill="black" stroke="black" cx="419.04" cy="-58.6" rx="1.8" ry="1.8"/>
</g>
<!-- v16&#45;&gt;v20 -->
<g id="edge19" class="edge">
<title>v16&#45;&gt;v20</title>
<path fill="none" stroke="black" d="M428.61,-127.4C426.23,-110.52 422.67,-85.26 420.63,-70.82"/>
<polygon fill="black" stroke="black" points="424.06,-70.09 419.2,-60.68 417.13,-71.07 424.06,-70.09"/>
</g>
<!-- v19 -->
<g id="node20" class="node">
<title>v19</title>
<ellipse fill="black" stroke="black" cx="444.04" cy="-58.6" rx="1.8" ry="1.8"/>
</g>
<!-- v16&#45;&gt;v19 -->
<g id="edge20" class="edge">
<title>v16&#45;&gt;v19</title>
<path fill="none" stroke="black" d="M433.67,-127.4C436.26,-110.52 440.12,-85.26 442.33,-70.82"/>
<polygon fill="black" stroke="black" points="445.83,-71.1 443.88,-60.68 438.91,-70.04 445.83,-71.1"/>
</g>
<!-- v18 -->
<g id="node21" class="node">
<title>v18</title>
<ellipse fill="black" stroke="black" cx="469.04" cy="-58.6" rx="1.8" ry="1.8"/>
</g>
<!-- v16&#45;&gt;v18 -->
<g id="edge22" class="edge">
<title>v16&#45;&gt;v18</title>
<path fill="none" stroke="black" d="M442.26,-127.55C445.67,-121.97 449.24,-115.64 452.04,-109.6 458.05,-96.64 463.04,-80.95 466.03,-70.64"/>
<polygon fill="black" stroke="black" points="469.43,-71.45 468.72,-60.88 462.69,-69.59 469.43,-71.45"/>
</g>
<!-- v17 -->
<g id="node22" class="node">
<title>v17</title>
<ellipse fill="black" stroke="black" cx="394.04" cy="-58.6" rx="1.8" ry="1.8"/>
</g>
<!-- v16&#45;&gt;v17 -->
<g id="edge23" class="edge">
<title>v16&#45;&gt;v17</title>
<path fill="none" stroke="black" d="M423.56,-127.4C416.05,-110.17 404.75,-84.21 398.54,-69.93"/>
<polygon fill="black" stroke="black" points="401.71,-68.45 394.51,-60.68 395.3,-71.25 401.71,-68.45"/>
</g>
<!-- v4 -->
<g id="node7" class="node">
<title>v4</title>
<ellipse fill="black" stroke="black" cx="266.04" cy="-319.6" rx="3.6" ry="3.6"/>
</g>
<!-- v5 -->
<g id="node8" class="node">
<title>v5</title>
<ellipse fill="none" stroke="black" cx="266.04" cy="-232.6" rx="70.69" ry="18"/>
<text text-anchor="middle" x="266.04" y="-228.9" font-family="Times,serif" font-size="14.00">download_go</text>
</g>
<!-- v4&#45;&gt;v5 -->
<g id="edge5" class="edge">
<title>v4&#45;&gt;v5</title>
<path fill="none" stroke="black" d="M266.04,-315.77C266.04,-307.28 266.04,-281.35 266.04,-260.87"/>
<polygon fill="black" stroke="black" points="269.54,-260.77 266.04,-250.77 262.54,-260.77 269.54,-260.77"/>
<text text-anchor="middle" x="276.54" y="-272.4" font-family="Times,serif" font-size="14.00">url</text>
</g>
<!-- v5&#45;&gt;v16 -->
<g id="edge6" class="edge">
<title>v5&#45;&gt;v16</title>
<path fill="none" stroke="black" d="M295.92,-216.21C322.91,-202.31 362.78,-181.77 392.22,-166.6"/>
<polygon fill="black" stroke="black" points="394.1,-169.57 401.39,-161.88 390.89,-163.35 394.1,-169.57"/>
</g>
<!-- v6 -->
<g id="node9" class="node">
<title>v6</title>
<ellipse fill="black" stroke="black" cx="532.04" cy="-319.6" rx="3.6" ry="3.6"/>
</g>
<!-- v7 -->
<g id="node10" class="node">
<title>v7</title>
<ellipse fill="none" stroke="black" cx="532.04" cy="-232.6" rx="177.37" ry="18"/>
<text text-anchor="middle" x="532.04" y="-228.9" font-family="Times,serif" font-size="14.00">download_gocheck_do_not_annotate</text>
</g>
<!-- v6&#45;&gt;v7 -->
<g id="edge7" class="edge">
<title>v6&#45;&gt;v7</title>
<path fill="none" stroke="black" d="M532.04,-315.77C532.04,-307.28 532.04,-281.35 532.04,-260.87"/>
<polygon fill="black" stroke="black" points="535.54,-260.77 532.04,-250.77 528.54,-260.77 535.54,-260.77"/>
<text text-anchor="middle" x="542.54" y="-272.4" font-family="Times,serif" font-size="14.00">url</text>
</g>
<!-- v7&#45;&gt;v16 -->
<g id="edge8" class="edge">
<title>v7&#45;&gt;v16</title>
<path fill="none" stroke="black" d="M511.6,-214.4C496.25,-201.48 475.06,-183.65 458.27,-169.51"/>
<polygon fill="black" stroke="black" points="460.33,-166.67 450.42,-162.91 455.82,-172.03 460.33,-166.67"/>
</g>
<!-- v8 -->
<g id="node11" class="node">
<title>v8</title>
<ellipse fill="black" stroke="black" cx="1074.04" cy="-232.6" rx="3.6" ry="3.6"/>
</g>
<!-- v9 -->
<g id="node12" class="node">
<title>v9</title>
<ellipse fill="none" stroke="black" cx="1072.04" cy="-145.6" rx="110.48" ry="18"/>
<text text-anchor="middle" x="1072.04" y="-141.9" font-family="Times,serif" font-size="14.00">download_taxallnomy</text>
</g>
<!-- v8&#45;&gt;v9 -->
<g id="edge9" class="edge">
<title>v8&#45;&gt;v9</title>
<path fill="none" stroke="black" d="M1073.98,-228.77C1073.78,-220.28 1073.17,-194.35 1072.68,-173.87"/>
<polygon fill="black" stroke="black" points="1076.18,-173.68 1072.45,-163.77 1069.18,-173.85 1076.18,-173.68"/>
<text text-anchor="middle" x="1084.54" y="-185.4" font-family="Times,serif" font-size="14.00">url</text>
</g>
<!-- v9&#45;&gt;v22 -->
<g id="edge10" class="edge">
<title>v9&#45;&gt;v22</title>
<path fill="none" stroke="black" d="M1042.67,-128.14C1024.91,-118.27 1001.76,-105.54 981.04,-94.6 971.59,-89.61 961.35,-84.34 951.72,-79.45"/>
<polygon fill="black" stroke="black" points="953.23,-76.28 942.73,-74.89 950.07,-82.53 953.23,-76.28"/>
</g>
<!-- v28 -->
<g id="node24" class="node">
<title>v28</title>
<ellipse fill="black" stroke="black" cx="849.04" cy="-1.8" rx="1.8" ry="1.8"/>
</g>
<!-- v22&#45;&gt;v28 -->
<g id="edge25" class="edge">
<title>v22&#45;&gt;v28</title>
<path fill="none" stroke="black" d="M893.14,-41.16C881.47,-31.01 867.04,-18.45 857.93,-10.53"/>
<polygon fill="black" stroke="black" points="860.02,-7.71 850.18,-3.79 855.42,-12.99 860.02,-7.71"/>
</g>
<!-- v27 -->
<g id="node25" class="node">
<title>v27</title>
<ellipse fill="black" stroke="black" cx="874.04" cy="-1.8" rx="1.8" ry="1.8"/>
</g>
<!-- v22&#45;&gt;v27 -->
<g id="edge26" class="edge">
<title>v22&#45;&gt;v27</title>
<path fill="none" stroke="black" d="M900.23,-40.56C893.75,-31.21 885.96,-19.98 880.57,-12.21"/>
<polygon fill="black" stroke="black" points="883.29,-9.99 874.71,-3.76 877.53,-13.97 883.29,-9.99"/>
</g>
<!-- v26 -->
<g id="node26" class="node">
<title>v26</title>
<ellipse fill="black" stroke="black" cx="899.04" cy="-1.8" rx="1.8" ry="1.8"/>
</g>
<!-- v22&#45;&gt;v26 -->
<g id="edge27" class="edge">
<title>v22&#45;&gt;v26</title>
<path fill="none" stroke="black" d="M908,-40.56C905.91,-31.76 903.43,-21.3 901.61,-13.61"/>
<polygon fill="black" stroke="black" points="904.99,-12.68 899.27,-3.76 898.17,-14.3 904.99,-12.68"/>
</g>
<!-- v25 -->
<g id="node27" class="node">
<title>v25</title>
<ellipse fill="black" stroke="black" cx="924.04" cy="-1.8" rx="1.8" ry="1.8"/>
</g>
<!-- v22&#45;&gt;v25 -->
<g id="edge28" class="edge">
<title>v22&#45;&gt;v25</title>
<path fill="none" stroke="black" d="M915.77,-40.56C917.7,-31.76 919.99,-21.3 921.68,-13.61"/>
<polygon fill="black" stroke="black" points="925.11,-14.28 923.83,-3.76 918.27,-12.78 925.11,-14.28"/>
</g>
<!-- v24 -->
<g id="node28" class="node">
<title>v24</title>
<ellipse fill="black" stroke="black" cx="949.04" cy="-1.8" rx="1.8" ry="1.8"/>
</g>
<!-- v22&#45;&gt;v24 -->
<g id="edge29" class="edge">
<title>v22&#45;&gt;v24</title>
<path fill="none" stroke="black" d="M923.55,-40.56C929.86,-31.21 937.44,-19.98 942.69,-12.21"/>
<polygon fill="black" stroke="black" points="945.7,-14.01 948.39,-3.76 939.9,-10.09 945.7,-14.01"/>
</g>
<!-- v23 -->
<g id="node29" class="node">
<title>v23</title>
<ellipse fill="black" stroke="black" cx="974.04" cy="-1.8" rx="1.8" ry="1.8"/>
</g>
<!-- v22&#45;&gt;v23 -->
<g id="edge30" class="edge">
<title>v22&#45;&gt;v23</title>
<path fill="none" stroke="black" d="M930.65,-41.16C942.13,-31.01 956.33,-18.45 965.29,-10.53"/>
<polygon fill="black" stroke="black" points="967.75,-13.03 972.93,-3.79 963.12,-7.79 967.75,-13.03"/>
</g>
<!-- v14&#45;&gt;v22 -->
<g id="edge16" class="edge">
<title>v14&#45;&gt;v22</title>
<path fill="none" stroke="black" d="M871.12,-127.81C878.41,-115.66 888.38,-99.03 896.66,-85.23"/>
<polygon fill="black" stroke="black" points="899.67,-87.03 901.81,-76.65 893.67,-83.42 899.67,-87.03"/>
</g>
<!-- v13 -->
<g id="node17" class="node">
<title>v13</title>
<ellipse fill="black" stroke="black" cx="661.04" cy="-58.6" rx="1.8" ry="1.8"/>
</g>
<!-- v12&#45;&gt;v13 -->
<g id="edge14" class="edge">
<title>v12&#45;&gt;v13</title>
<path fill="none" stroke="black" d="M661.04,-127.4C661.04,-110.52 661.04,-85.26 661.04,-70.82"/>
<polygon fill="black" stroke="black" points="664.54,-70.68 661.04,-60.68 657.54,-70.68 664.54,-70.68"/>
</g>
<!-- v11 -->
<g id="node16" class="node">
<title>v11</title>
<ellipse fill="black" stroke="black" cx="731.04" cy="-232.6" rx="3.6" ry="3.6"/>
</g>
<!-- v11&#45;&gt;v12 -->
<g id="edge13" class="edge">
<title>v11&#45;&gt;v12</title>
<path fill="none" stroke="black" d="M729.93,-229.16C728.06,-225.36 723.91,-218.11 718.04,-214.6 675.16,-188.93 639.43,-234.66 607.04,-196.6 598.57,-186.64 605.51,-176.65 616.89,-168.24"/>
<polygon fill="black" stroke="black" points="618.9,-171.11 625.34,-162.7 615.06,-165.26 618.9,-171.11"/>
<text text-anchor="middle" x="666.04" y="-185.4" font-family="Times,serif" font-size="14.00">max_protein_len</text>
</g>
<!-- v15 -->
<g id="node18" class="node">
<title>v15</title>
<ellipse fill="black" stroke="black" cx="174.04" cy="-232.6" rx="3.6" ry="3.6"/>
</g>
<!-- v15&#45;&gt;v16 -->
<g id="edge18" class="edge">
<title>v15&#45;&gt;v16</title>
<path fill="none" stroke="black" d="M174.11,-228.77C174.49,-220.14 176.9,-193.98 192.04,-181.6 216.33,-161.75 293.84,-153.14 354.08,-149.42"/>
<polygon fill="black" stroke="black" points="354.57,-152.9 364.35,-148.83 354.17,-145.91 354.57,-152.9"/>
<text text-anchor="middle" x="263.54" y="-185.4" font-family="Times,serif" font-size="14.00">evi_not_to_use_path</text>
</g>
<!-- v21 -->
<g id="node23" class="node">
<title>v21</title>
<ellipse fill="black" stroke="black" cx="940.04" cy="-145.6" rx="3.6" ry="3.6"/>
</g>
<!-- v21&#45;&gt;v22 -->
<g id="edge24" class="edge">
<title>v21&#45;&gt;v22</title>
<path fill="none" stroke="black" d="M939.11,-141.77C936.29,-133.21 927.62,-106.88 920.84,-86.3"/>
<polygon fill="black" stroke="black" points="924.15,-85.17 917.7,-76.77 917.5,-87.36 924.15,-85.17"/>
<text text-anchor="middle" x="952.54" y="-98.4" font-family="Times,serif" font-size="14.00">src_dir</text>
</g>
<!-- v29 -->
<g id="node30" class="node">
<title>v29</title>
<ellipse fill="black" stroke="black" cx="1233.04" cy="-319.6" rx="3.6" ry="3.6"/>
</g>
<!-- v30 -->
<g id="node31" class="node">
<title>v30</title>
<ellipse fill="none" stroke="black" cx="1233.04" cy="-232.6" rx="85.29" ry="18"/>
<text text-anchor="middle" x="1233.04" y="-228.9" font-family="Times,serif" font-size="14.00">download_prot5</text>
</g>
<!-- v29&#45;&gt;v30 -->
<g id="edge31" class="edge">
<title>v29&#45;&gt;v30</title>
<path fill="none" stroke="black" d="M1233.04,-315.77C1233.04,-307.28 1233.04,-281.35 1233.04,-260.87"/>
<polygon fill="black" stroke="black" points="1236.54,-260.77 1233.04,-250.77 1229.54,-260.77 1236.54,-260.77"/>
<text text-anchor="middle" x="1243.54" y="-272.4" font-family="Times,serif" font-size="14.00">url</text>
</g>
<!-- v30&#45;&gt;v32 -->
<g id="edge32" class="edge">
<title>v30&#45;&gt;v32</title>
<path fill="none" stroke="black" d="M1243.36,-214.4C1250.6,-202.34 1260.4,-186 1268.57,-172.39"/>
<polygon fill="black" stroke="black" points="1271.77,-173.86 1273.91,-163.49 1265.77,-170.26 1271.77,-173.86"/>
</g>
<!-- v33 -->
<g id="node34" class="node">
<title>v33</title>
<ellipse fill="black" stroke="black" cx="1284.04" cy="-58.6" rx="1.8" ry="1.8"/>
</g>
<!-- v32&#45;&gt;v33 -->
<g id="edge35" class="edge">
<title>v32&#45;&gt;v33</title>
<path fill="none" stroke="black" d="M1284.04,-127.4C1284.04,-110.52 1284.04,-85.26 1284.04,-70.82"/>
<polygon fill="black" stroke="black" points="1287.54,-70.68 1284.04,-60.68 1280.54,-70.68 1287.54,-70.68"/>
</g>
<!-- v31 -->
<g id="node33" class="node">
<title>v31</title>
<ellipse fill="black" stroke="black" cx="1340.04" cy="-232.6" rx="3.6" ry="3.6"/>
</g>
<!-- v31&#45;&gt;v32 -->
<g id="edge34" class="edge">
<title>v31&#45;&gt;v32</title>
<path fill="none" stroke="black" d="M1338.43,-229.15C1332.97,-220.86 1314.77,-193.23 1300.91,-172.2"/>
<polygon fill="black" stroke="black" points="1303.71,-170.09 1295.29,-163.67 1297.87,-173.94 1303.71,-170.09"/>
<text text-anchor="middle" x="1340.54" y="-185.4" font-family="Times,serif" font-size="14.00">src_dir</text>
</g>
</g>
</svg>
